normalP12_grf.mot
version=1
nRows=12
nColumns=19
inDegrees=yes
endheader
time	1_ground_force_vx	1_ground_force_vy	1_ground_force_vz	1_ground_force_px	1_ground_force_py	1_ground_force_pz	1_ground_torque_x	1_ground_torque_y	1_ground_torque_z	2_ground_force_vx	2_ground_force_vy	2_ground_force_vz	2_ground_force_px	2_ground_force_py	2_ground_force_pz	2_ground_torque_x	2_ground_torque_y	2_ground_torque_z
            1.600000	          -16.218829	          713.698403	          -37.761595	            0.389639	            0.002240	           -0.191336	           -0.011136	            0.490051	           -0.025928	           -0.073010	            0.575232	           -0.052327	            0.849276	            0.001279	           -0.309553	           -0.069796	            0.006918	            0.038446
            1.601000	          -16.602856	          713.299156	          -37.310595	            0.389726	            0.002239	           -0.191331	           -0.013741	            0.590327	           -0.030878	            0.034603	            0.655285	           -0.044564	            0.849276	            0.001279	           -0.309553	           -0.086878	            0.007951	           -0.106780
            1.602000	          -16.839643	          715.291009	          -36.990728	            0.389857	            0.002239	           -0.191521	           -0.015706	            0.667118	           -0.034499	            0.000396	           -0.383312	            0.005308	            0.849276	            0.001279	           -0.309553	           -0.003208	            0.004086	           -0.085980
            1.603000	          -16.587660	          717.124422	          -37.100430	            0.389658	            0.002240	           -0.191694	           -0.015952	            0.689653	           -0.035679	           -0.014118	           -0.144517	            0.029085	            0.849276	            0.001279	           -0.309553	           -0.087043	           -0.000163	           -0.023507
            1.604000	          -17.017510	          716.726277	          -36.848327	            0.389801	            0.002239	           -0.191456	           -0.018486	            0.778573	           -0.040028	            0.038655	           -0.383844	           -0.033321	            0.849276	            0.001279	           -0.309553	           -0.070278	            0.002333	           -0.086041
            1.605000	          -16.858831	          716.327092	          -37.025508	            0.389709	            0.002240	           -0.191495	           -0.019119	            0.812368	           -0.041990	            0.011142	            0.495010	            0.031589	            0.849276	            0.001279	           -0.309553	           -0.019653	           -0.003206	            0.059468
            1.606000	          -16.836941	          716.166692	          -36.956955	            0.390023	            0.002238	           -0.191438	           -0.020505	            0.872174	           -0.045008	            0.003392	            0.495859	           -0.037618	            0.849276	            0.001279	           -0.309553	           -0.019788	           -0.006415	           -0.065308
            1.607000	          -16.847355	          717.363389	          -36.792676	            0.389904	            0.002239	           -0.191466	           -0.021533	            0.916872	           -0.047025	            0.008498	           -0.223326	           -0.063329	            0.849276	            0.001279	           -0.309553	            0.030548	            0.009649	           -0.002923
            1.608000	          -16.682818	          718.396803	          -36.774425	            0.390095	            0.002239	           -0.191669	           -0.022160	            0.954249	           -0.048848	            0.031256	           -0.304392	           -0.033017	            0.849276	            0.001279	           -0.309553	           -0.120751	            0.004040	           -0.064892
            1.609000	          -16.700304	          717.916836	          -36.706760	            0.390275	            0.002238	           -0.191633	           -0.023344	            1.003513	           -0.051309	           -0.011955	            0.495479	           -0.045096	            0.849276	            0.001279	           -0.309553	           -0.053257	            0.007534	           -0.023648
            1.610000	          -16.481290	          717.278947	          -36.754539	            0.390243	            0.002237	           -0.191488	           -0.024003	            1.044639	           -0.053529	           -0.004487	            0.415986	            0.015940	            0.849276	            0.001279	           -0.309553	           -0.003065	           -0.002736	           -0.086038
            1.611000	          -16.286314	          718.235211	          -36.644644	            0.390068	            0.002239	           -0.191661	           -0.024963	            1.100881	           -0.056167	            0.032450	            0.014913	            0.029725	            0.849276	            0.001279	           -0.309553	           -0.120462	            0.004721	           -0.023636
